{
  "accessors": [
    {
      "bufferView": 2,
      "componentType": 5126,
      "count": 22905,
      "max": [
        0.12326300144195557,
        0.1050880029797554,
        0.024321999400854111
      ],
      "min": [
        -0.14484399557113647,
        -0.16218599677085876,
        -0.022714000195264816
      ],
      "type": "VEC3"
    },
    {
      "bufferView": 2,
      "byteOffset": 274860,
      "componentType": 5126,
      "count": 22905,
      "max": [
        0.99788743257522583,
        0.99187791347503662,
        0.91879725456237793
      ],
      "min": [
        -0.95326805114746094,
        -0.99593561887741089,
        -0.99999922513961792
      ],
      "type": "VEC3"
    },
    {
      "bufferView": 3,
      "componentType": 5126,
      "count": 22905,
      "max": [
        0.9996410608291626,
        0.99996381998062134,
        0.99664556980133057,
        1
      ],
      "min": [
        -0.9951484203338623,
        -0.99979096651077271,
        -0.9236370325088501,
        1
      ],
      "type": "VEC4"
    },
    {
      "bufferView": 1,
      "componentType": 5126,
      "count": 22905,
      "max": [
        0.93661397695541382,
        0.97227299213409424
      ],
      "min": [
        0,
        0
      ],
      "type": "VEC2"
    },
    {
      "bufferView": 0,
      "componentType": 5125,
      "count": 128886,
      "max": [
        22904
      ],
      "min": [
        0
      ],
      "type": "SCALAR"
    }
  ],
  "asset": {
    "extras": {
      "author": "aksnexus1 (https://sketchfab.com/aksnexus1)",
      "license": "CC-BY-4.0 (http://creativecommons.org/licenses/by/4.0/)",
      "source": "https://sketchfab.com/models/f3c5748d8dbf47a4b932f80aa0e1c21d",
      "title": "Asphalt"
    },
    "generator": "Sketchfab-3.23.4",
    "version": "2.0"
  },
  "bufferViews": [
    {
      "buffer": 0,
      "byteLength": 515544,
      "byteOffset": 0,
      "name": "floatBufferViews",
      "target": 34963
    },
    {
      "buffer": 0,
      "byteLength": 183240,
      "byteOffset": 515544,
      "byteStride": 8,
      "name": "floatBufferViews",
      "target": 34962
    },
    {
      "buffer": 0,
      "byteLength": 549720,
      "byteOffset": 698784,
      "byteStride": 12,
      "name": "floatBufferViews",
      "target": 34962
    },
    {
      "buffer": 0,
      "byteLength": 366480,
      "byteOffset": 1248504,
      "byteStride": 16,
      "name": "floatBufferViews",
      "target": 34962
    }
  ],
  "buffers": [
    {
      "byteLength": 1614984,
      "uri": "scene.bin"
    }
  ],
  "images": [
    {
      "uri": "textures/mesh_metallicRoughness.png"
    },
    {
      "uri": "textures/mesh_normal.png"
    },
    {
      "uri": "textures/mesh_baseColor.jpeg"
    }
  ],
  "materials": [
    {
      "doubleSided": true,
      "emissiveFactor": [
        0,
        0,
        0
      ],
      "name": "mesh",
      "normalTexture": {
        "index": 1,
        "scale": 1,
        "texCoord": 0
      },
      "occlusionTexture": {
        "index": 0,
        "strength": 1,
        "texCoord": 0
      },
      "pbrMetallicRoughness": {
        "baseColorFactor": [
          1,
          1,
          1,
          1
        ],
        "baseColorTexture": {
          "index": 2,
          "texCoord": 0
        },
        "metallicFactor": 0.1114710366,
        "metallicRoughnessTexture": {
          "index": 0,
          "texCoord": 0
        },
        "roughnessFactor": 1
      }
    }
  ],
  "meshes": [
    {
      "primitives": [
        {
          "attributes": {
            "NORMAL": 1,
            "POSITION": 0,
            "TANGENT": 2,
            "TEXCOORD_0": 3
          },
          "indices": 4,
          "material": 0,
          "mode": 4
        }
      ]
    }
  ],
  "nodes": [
    {
      "children": [
        1
      ],
      "name": "RootNode (gltf orientation matrix)",
      "rotation": [
        -0.70710678118654746,
        -0,
        -0,
        0.70710678118654757
      ]
    },
    {
      "children": [
        2
      ],
      "matrix": [
        -0.97994309663772583,
        -0.19295048713684082,
        -0.049815788865089417,
        0,
        -0.18715022504329681,
        0.97696316242218018,
        -0.10255644470453262,
        0,
        0.068456500768661499,
        -0.091176442801952362,
        -0.99347901344299316,
        0,
        -0.026762450113892555,
        -0.0026663923636078835,
        -0.001862621633335948,
        1
      ],
      "name": "RootNode (model correction matrix)"
    },
    {
      "children": [
        3
      ],
      "name": "mesh.obj.cleaner.materialmerger.gles"
    },
    {
      "mesh": 0,
      "name": ""
    }
  ],
  "samplers": [
    {
      "magFilter": 9729,
      "minFilter": 9987,
      "wrapS": 10497,
      "wrapT": 10497
    }
  ],
  "scene": 0,
  "scenes": [
    {
      "name": "OSG_Scene",
      "nodes": [
        0
      ]
    }
  ],
  "textures": [
    {
      "sampler": 0,
      "source": 0
    },
    {
      "sampler": 0,
      "source": 1
    },
    {
      "sampler": 0,
      "source": 2
    }
  ]
}

