{
  "accessors": [
    {
      "bufferView": 1,
      "componentType": 5126,
      "count": 65532,
      "max": [
        267.31402587890625,
        92.915557861328125,
        254.82444763183594
      ],
      "min": [
        -325.8009033203125,
        -439.7901611328125,
        -300.918212890625
      ],
      "type": "VEC3"
    },
    {
      "bufferView": 1,
      "byteOffset": 786384,
      "componentType": 5126,
      "count": 65532,
      "max": [
        0.99999386072158813,
        0.99972683191299438,
        0.9999772310256958
      ],
      "min": [
        -0.99998927116394043,
        -0.99999690055847168,
        -0.99999010562896729
      ],
      "type": "VEC3"
    },
    {
      "bufferView": 0,
      "componentType": 5125,
      "count": 350904,
      "max": [
        65531
      ],
      "min": [
        0
      ],
      "type": "SCALAR"
    },
    {
      "bufferView": 1,
      "byteOffset": 1572768,
      "componentType": 5126,
      "count": 65532,
      "max": [
        267.6151123046875,
        391.7486572265625,
        230.56118774414062
      ],
      "min": [
        -325.62808227539062,
        -393.09429931640625,
        -300.83502197265625
      ],
      "type": "VEC3"
    },
    {
      "bufferView": 1,
      "byteOffset": 2359152,
      "componentType": 5126,
      "count": 65532,
      "max": [
        0.99999386072158813,
        0.99996078014373779,
        0.9999881386756897
      ],
      "min": [
        -0.99999701976776123,
        -0.9996684193611145,
        -0.99998748302459717
      ],
      "type": "VEC3"
    },
    {
      "bufferView": 0,
      "byteOffset": 1403616,
      "componentType": 5125,
      "count": 344934,
      "max": [
        65531
      ],
      "min": [
        0
      ],
      "type": "SCALAR"
    },
    {
      "bufferView": 1,
      "byteOffset": 3145536,
      "componentType": 5126,
      "count": 65532,
      "max": [
        272.73297119140625,
        390.31729125976562,
        272.08563232421875
      ],
      "min": [
        -324.6829833984375,
        -433.96240234375,
        -251.204345703125
      ],
      "type": "VEC3"
    },
    {
      "bufferView": 1,
      "byteOffset": 3931920,
      "componentType": 5126,
      "count": 65532,
      "max": [
        0.99999523162841797,
        0.99985963106155396,
        0.99998849630355835
      ],
      "min": [
        -0.99996966123580933,
        -0.99998176097869873,
        -0.99977684020996094
      ],
      "type": "VEC3"
    },
    {
      "bufferView": 0,
      "byteOffset": 2783352,
      "componentType": 5125,
      "count": 322152,
      "max": [
        65531
      ],
      "min": [
        0
      ],
      "type": "SCALAR"
    },
    {
      "bufferView": 1,
      "byteOffset": 4718304,
      "componentType": 5126,
      "count": 13166,
      "max": [
        269.234619140625,
        391.765380859375,
        253.55020141601562
      ],
      "min": [
        -319.7650146484375,
        -438.2794189453125,
        -271.55609130859375
      ],
      "type": "VEC3"
    },
    {
      "bufferView": 1,
      "byteOffset": 4876296,
      "componentType": 5126,
      "count": 13166,
      "max": [
        0.99987095594406128,
        0.99993306398391724,
        0.99998235702514648
      ],
      "min": [
        -0.99980920553207397,
        -0.99972802400588989,
        -0.99992036819458008
      ],
      "type": "VEC3"
    },
    {
      "bufferView": 0,
      "byteOffset": 4071960,
      "componentType": 5125,
      "count": 34626,
      "max": [
        13165
      ],
      "min": [
        0
      ],
      "type": "SCALAR"
    }
  ],
  "asset": {
    "generator": "Sketchfab (OSG glTF plugin)",
    "version": "2.0"
  },
  "bufferViews": [
    {
      "buffer": 0,
      "byteLength": 4210464,
      "byteOffset": 0,
      "name": "floatBufferViews",
      "target": 34963
    },
    {
      "buffer": 0,
      "byteLength": 5034288,
      "byteOffset": 4210464,
      "byteStride": 12,
      "name": "floatBufferViews",
      "target": 34962
    }
  ],
  "buffers": [
    {
      "byteLength": 9244752,
      "uri": "cscene.bin"
    }
  ],
  "extensionsRequired": [
    "KHR_materials_pbrSpecularGlossiness"
  ],
  "extensionsUsed": [
    "KHR_materials_pbrSpecularGlossiness"
  ],
  "materials": [
    {
      "doubleSided": true,
      "emissiveFactor": [
        0,
        0,
        0
      ],
      "extensions": {
        "KHR_materials_pbrSpecularGlossiness": {
          "diffuseFactor": [
            0.5,
            0.5,
            0.5,
            1
          ],
          "glossinessFactor": 0,
          "specularFactor": [
            0,
            0,
            0
          ]
        }
      },
      "name": "Scene - Root",
      "occlusionFactor": 1
    }
  ],
  "meshes": [
    {
      "primitives": [
        {
          "attributes": {
            "NORMAL": 1,
            "POSITION": 0
          },
          "indices": 2,
          "material": 0,
          "mode": 4
        }
      ]
    },
    {
      "primitives": [
        {
          "attributes": {
            "NORMAL": 4,
            "POSITION": 3
          },
          "indices": 5,
          "material": 0,
          "mode": 4
        }
      ]
    },
    {
      "primitives": [
        {
          "attributes": {
            "NORMAL": 7,
            "POSITION": 6
          },
          "indices": 8,
          "material": 0,
          "mode": 4
        }
      ]
    },
    {
      "primitives": [
        {
          "attributes": {
            "NORMAL": 10,
            "POSITION": 9
          },
          "indices": 11,
          "material": 0,
          "mode": 4
        }
      ]
    }
  ],
  "nodes": [
    {
      "children": [
        1
      ],
      "name": "RootNode (gltf orientation matrix)",
      "rotation": [
        -0.70710678118654746,
        -0,
        -0,
        0.70710678118654757
      ]
    },
    {
      "children": [
        2
      ],
      "matrix": [
        -1,
        0,
        -1.2246468525851679e-16,
        0,
        0,
        1,
        0,
        0,
        1.2246468525851679e-16,
        0,
        -1,
        0,
        0,
        0,
        0,
        1
      ],
      "name": "RootNode (model correction matrix)"
    },
    {
      "children": [
        3
      ],
      "name": "f18fef7286bc421cb0f411199cda5b3e.stl.cleaner"
    },
    {
      "children": [
        4,
        5,
        6,
        7
      ],
      "name": "Geode"
    },
    {
      "mesh": 0,
      "name": ""
    },
    {
      "mesh": 1,
      "name": ""
    },
    {
      "mesh": 2,
      "name": ""
    },
    {
      "mesh": 3,
      "name": ""
    }
  ],
  "scene": 0,
  "scenes": [
    {
      "name": "OSG_Scene",
      "nodes": [
        0
      ]
    }
  ]
}

