{
  "accessors": [
    {
      "bufferView": 2,
      "componentType": 5126,
      "count": 498,
      "max": [
        1.3219599723815918,
        -10.407462120056152,
        0.13948200643062592
      ],
      "min": [
        -0.088628999888896942,
        -11.729808807373047,
        -0.30802500247955322
      ],
      "type": "VEC3"
    },
    {
      "bufferView": 2,
      "byteOffset": 5976,
      "componentType": 5126,
      "count": 498,
      "max": [
        0.99658924341201782,
        0.80720382928848267,
        0.99783611297607422
      ],
      "min": [
        -0.9109036922454834,
        -0.99985110759735107,
        -0.99650102853775024
      ],
      "type": "VEC3"
    },
    {
      "bufferView": 3,
      "componentType": 5126,
      "count": 498,
      "max": [
        0.99999642372131348,
        0.99079018831253052,
        0.3649335503578186,
        1
      ],
      "min": [
        -0.99647343158721924,
        -0.99834412336349487,
        -0.36492884159088135,
        -1
      ],
      "type": "VEC4"
    },
    {
      "bufferView": 1,
      "componentType": 5126,
      "count": 498,
      "max": [
        0.70540797710418701,
        0.96618300676345825
      ],
      "min": [
        0.28000399470329285,
        0.030293999239802361
      ],
      "type": "VEC2"
    },
    {
      "bufferView": 0,
      "componentType": 5125,
      "count": 2520,
      "max": [
        497
      ],
      "min": [
        0
      ],
      "type": "SCALAR"
    },
    {
      "bufferView": 2,
      "byteOffset": 11952,
      "componentType": 5126,
      "count": 258,
      "max": [
        1.9712690114974976,
        -11.553473472595215,
        -1.0435210466384888
      ],
      "min": [
        1.1600819826126099,
        -12.405490875244141,
        -1.1539850234985352
      ],
      "type": "VEC3"
    },
    {
      "bufferView": 2,
      "byteOffset": 15048,
      "componentType": 5126,
      "count": 258,
      "max": [
        0.70704418420791626,
        0.7690693736076355,
        0.9999995231628418
      ],
      "min": [
        -0.90254002809524536,
        -0.72317999601364136,
        -0.99999946355819702
      ],
      "type": "VEC3"
    },
    {
      "bufferView": 3,
      "byteOffset": 7968,
      "componentType": 5126,
      "count": 258,
      "max": [
        0.77918964624404907,
        0.99672484397888184,
        0.94450074434280396,
        1
      ],
      "min": [
        -0.91204065084457397,
        -0.8563721776008606,
        -0.98693329095840454,
        -1
      ],
      "type": "VEC4"
    },
    {
      "bufferView": 0,
      "byteOffset": 10080,
      "componentType": 5125,
      "count": 1008,
      "max": [
        257
      ],
      "min": [
        0
      ],
      "type": "SCALAR"
    },
    {
      "bufferView": 2,
      "byteOffset": 18144,
      "componentType": 5126,
      "count": 9596,
      "max": [
        1.6832729578018188,
        -9.6173868179321289,
        0.27472800016403198
      ],
      "min": [
        -0.83715200424194336,
        -12.104016304016113,
        -1.24052894115448
      ],
      "type": "VEC3"
    },
    {
      "bufferView": 2,
      "byteOffset": 133296,
      "componentType": 5126,
      "count": 9596,
      "max": [
        0.99999624490737915,
        0.93832165002822876,
        1
      ],
      "min": [
        -0.82284480333328247,
        -0.99999499320983887,
        -1
      ],
      "type": "VEC3"
    },
    {
      "bufferView": 3,
      "byteOffset": 12096,
      "componentType": 5126,
      "count": 9596,
      "max": [
        0.99994724988937378,
        0.99992084503173828,
        0.66859227418899536,
        1
      ],
      "min": [
        -0.93878668546676636,
        -0.835723876953125,
        -0.72892653942108154,
        1
      ],
      "type": "VEC4"
    },
    {
      "bufferView": 1,
      "byteOffset": 3984,
      "componentType": 5126,
      "count": 9596,
      "max": [
        1,
        0.96564799547195435
      ],
      "min": [
        0,
        0
      ],
      "type": "VEC2"
    },
    {
      "bufferView": 0,
      "byteOffset": 14112,
      "componentType": 5125,
      "count": 56832,
      "max": [
        9595
      ],
      "min": [
        0
      ],
      "type": "SCALAR"
    },
    {
      "bufferView": 2,
      "byteOffset": 248448,
      "componentType": 5126,
      "count": 10165,
      "max": [
        3.5515809059143066,
        10.853410720825195,
        1.255262017250061
      ],
      "min": [
        -3.5492489337921143,
        -11.053557395935059,
        -1.2721129655838013
      ],
      "type": "VEC3"
    },
    {
      "bufferView": 2,
      "byteOffset": 370428,
      "componentType": 5126,
      "count": 10165,
      "max": [
        0.99992597103118896,
        0.99997061491012573,
        0.99999964237213135
      ],
      "min": [
        -0.99995589256286621,
        -0.99832433462142944,
        -0.99999988079071045
      ],
      "type": "VEC3"
    },
    {
      "bufferView": 3,
      "byteOffset": 165632,
      "componentType": 5126,
      "count": 10165,
      "max": [
        0.99999773502349854,
        0.99803143739700317,
        1,
        1
      ],
      "min": [
        -0.99965918064117432,
        -0.99722611904144287,
        -1,
        -1
      ],
      "type": "VEC4"
    },
    {
      "bufferView": 1,
      "byteOffset": 80752,
      "componentType": 5126,
      "count": 10165,
      "max": [
        0.99027597904205322,
        5.1671199798583984
      ],
      "min": [
        0.0097249997779726982,
        -4.1626667976379395
      ],
      "type": "VEC2"
    },
    {
      "bufferView": 0,
      "byteOffset": 241440,
      "componentType": 5125,
      "count": 59400,
      "max": [
        10164
      ],
      "min": [
        0
      ],
      "type": "SCALAR"
    }
  ],
  "asset": {
    "generator": "Sketchfab (OSG glTF plugin)",
    "version": "2.0"
  },
  "bufferViews": [
    {
      "buffer": 0,
      "byteLength": 479040,
      "byteOffset": 0,
      "name": "floatBufferViews",
      "target": 34963
    },
    {
      "buffer": 0,
      "byteLength": 162072,
      "byteOffset": 479040,
      "byteStride": 8,
      "name": "floatBufferViews",
      "target": 34962
    },
    {
      "buffer": 0,
      "byteLength": 492408,
      "byteOffset": 641112,
      "byteStride": 12,
      "name": "floatBufferViews",
      "target": 34962
    },
    {
      "buffer": 0,
      "byteLength": 328272,
      "byteOffset": 1133520,
      "byteStride": 16,
      "name": "floatBufferViews",
      "target": 34962
    }
  ],
  "buffers": [
    {
      "byteLength": 1461792,
      "uri": "sscene.bin"
    }
  ],
  "images": [
    {
      "uri": "textures/anisotropic2SG_baseColor.png"
    },
    {
      "uri": "textures/phong1SG_baseColor.jpeg"
    }
  ],
  "materials": [
    {
      "doubleSided": true,
      "emissiveFactor": [
        0,
        0,
        0
      ],
      "name": "anisotropic2SG",
      "occlusionFactor": 1,
      "pbrMetallicRoughness": {
        "baseColorFactor": [
          1,
          1,
          1,
          1
        ],
        "baseColorTexture": {
          "index": 0,
          "texCoord": 0
        },
        "metallicFactor": 0,
        "roughnessFactor": 0.51394125499999999
      }
    },
    {
      "doubleSided": true,
      "emissiveFactor": [
        0,
        0,
        0
      ],
      "name": "blinn1SG",
      "pbrMetallicRoughness": {
        "baseColorFactor": [
          0.5,
          0.32000000000000001,
          0.37,
          1
        ],
        "metallicFactor": 0,
        "roughnessFactor": 0.23092238710000002
      }
    },
    {
      "doubleSided": true,
      "emissiveFactor": [
        0,
        0,
        0
      ],
      "name": "phong1SG",
      "occlusionFactor": 1,
      "pbrMetallicRoughness": {
        "baseColorFactor": [
          1,
          1,
          1,
          1
        ],
        "baseColorTexture": {
          "index": 1,
          "texCoord": 0
        },
        "metallicFactor": 0.15901471980000001,
        "roughnessFactor": 0.66844868209999997
      }
    }
  ],
  "meshes": [
    {
      "primitives": [
        {
          "attributes": {
            "NORMAL": 1,
            "POSITION": 0,
            "TANGENT": 2,
            "TEXCOORD_0": 3
          },
          "indices": 4,
          "material": 0,
          "mode": 4
        }
      ]
    },
    {
      "primitives": [
        {
          "attributes": {
            "NORMAL": 6,
            "POSITION": 5,
            "TANGENT": 7
          },
          "indices": 8,
          "material": 1,
          "mode": 4
        }
      ]
    },
    {
      "primitives": [
        {
          "attributes": {
            "NORMAL": 10,
            "POSITION": 9,
            "TANGENT": 11,
            "TEXCOORD_0": 12
          },
          "indices": 13,
          "material": 2,
          "mode": 4
        }
      ]
    },
    {
      "primitives": [
        {
          "attributes": {
            "NORMAL": 15,
            "POSITION": 14,
            "TANGENT": 16,
            "TEXCOORD_0": 17
          },
          "indices": 18,
          "material": 2,
          "mode": 4
        }
      ]
    }
  ],
  "nodes": [
    {
      "children": [
        1
      ],
      "name": "RootNode (gltf orientation matrix)",
      "rotation": [
        -0.70710678118654746,
        -0,
        -0,
        0.70710678118654757
      ]
    },
    {
      "children": [
        2
      ],
      "name": "RootNode (model correction matrix)"
    },
    {
      "children": [
        7
      ],
      "name": "Snake.obj.cleaner.materialmerger.gles"
    },
    {
      "mesh": 0,
      "name": ""
    },
    {
      "mesh": 1,
      "name": ""
    },
    {
      "mesh": 2,
      "name": ""
    },
    {
      "mesh": 3,
      "name": ""
    },
    {
      "children": [
        3,
        4,
        5,
        6
      ],
      "name": "Geode"
    }
  ],
  "samplers": [
    {
      "magFilter": 9729,
      "minFilter": 9987,
      "wrapS": 10497,
      "wrapT": 10497
    }
  ],
  "scene": 0,
  "scenes": [
    {
      "name": "OSG_Scene",
      "nodes": [
        0
      ]
    }
  ],
  "textures": [
    {
      "sampler": 0,
      "source": 0
    },
    {
      "sampler": 0,
      "source": 1
    }
  ]
}

